{
  "accessors": [
    {
      "bufferView": 2,
      "componentType": 5126,
      "count": 2108,
      "max": [
        0.8396854400634766,
        0.9776181578636169,
        0.7692755460739136
      ],
      "min": [
        -0.8396854400634766,
        -1.208989143371582,
        -0.8850910663604736
      ],
      "type": "VEC3"
    },
    {
      "bufferView": 2,
      "byteOffset": 25296,
      "componentType": 5126,
      "count": 2108,
      "max": [
        0.9999414682388306,
        0.9695834517478943,
        0.9994567632675171
      ],
      "min": [
        -0.9999414682388306,
        -0.9999744892120361,
        -0.9998209476470947
      ],
      "type": "VEC3"
    },
    {
      "bufferView": 1,
      "componentType": 5126,
      "count": 2108,
      "max": [
        0.7927824258804321,
        0.5000001192092896
      ],
      "min": [
        0.0,
        0.0
      ],
      "type": "VEC2"
    },
    {
      "bufferView": 0,
      "componentType": 5125,
      "count": 11472,
      "type": "SCALAR"
    },
    {
      "bufferView": 2,
      "byteOffset": 50592,
      "componentType": 5126,
      "count": 3453,
      "max": [
        0.844915509223938,
        0.6192719340324402,
        0.6459711790084839
      ],
      "min": [
        -0.8451370000839233,
        -1.1848034858703613,
        -0.9085900783538818
      ],
      "type": "VEC3"
    },
    {
      "bufferView": 2,
      "byteOffset": 92028,
      "componentType": 5126,
      "count": 3453,
      "max": [
        0.9999548196792603,
        0.9971832036972046,
        0.9995439052581787
      ],
      "min": [
        -0.9999548196792603,
        -0.9994512796401978,
        -0.9975453615188599
      ],
      "type": "VEC3"
    },
    {
      "bufferView": 1,
      "byteOffset": 16864,
      "componentType": 5126,
      "count": 3453,
      "max": [
        0.4759560227394104,
        0.5
      ],
      "min": [
        0.0,
        0.0
      ],
      "type": "VEC2"
    },
    {
      "bufferView": 0,
      "byteOffset": 45888,
      "componentType": 5125,
      "count": 17844,
      "type": "SCALAR"
    },
    {
      "bufferView": 2,
      "byteOffset": 133464,
      "componentType": 5126,
      "count": 677,
      "max": [
        0.8305202126502991,
        0.05391547828912735,
        0.064368836581707
      ],
      "min": [
        -0.8307762742042542,
        -1.2428699731826782,
        -1.051166296005249
      ],
      "type": "VEC3"
    },
    {
      "bufferView": 2,
      "byteOffset": 141588,
      "componentType": 5126,
      "count": 677,
      "max": [
        0.9961109757423401,
        0.7785141468048096,
        0.4908711910247803
      ],
      "min": [
        -0.9961109757423401,
        -0.9973630905151367,
        -0.9963474869728088
      ],
      "type": "VEC3"
    },
    {
      "bufferView": 1,
      "byteOffset": 44488,
      "componentType": 5126,
      "count": 677,
      "max": [
        0.0,
        0.0
      ],
      "min": [
        0.0,
        0.0
      ],
      "type": "VEC2"
    },
    {
      "bufferView": 0,
      "byteOffset": 117264,
      "componentType": 5125,
      "count": 1620,
      "type": "SCALAR"
    },
    {
      "bufferView": 2,
      "byteOffset": 149712,
      "componentType": 5126,
      "count": 930,
      "max": [
        0.9901941418647766,
        1.246934413909912,
        -0.23525944352149963
      ],
      "min": [
        -0.9905911684036255,
        0.5430062413215637,
        -0.7264018654823303
      ],
      "type": "VEC3"
    },
    {
      "bufferView": 2,
      "byteOffset": 160872,
      "componentType": 5126,
      "count": 930,
      "max": [
        0.999500036239624,
        0.9431790113449097,
        0.9999048709869385
      ],
      "min": [
        -0.999500036239624,
        -0.999783992767334,
        -0.9999897480010986
      ],
      "type": "VEC3"
    },
    {
      "bufferView": 1,
      "byteOffset": 49904,
      "componentType": 5126,
      "count": 930,
      "max": [
        0.0,
        0.0
      ],
      "min": [
        0.0,
        0.0
      ],
      "type": "VEC2"
    },
    {
      "bufferView": 0,
      "byteOffset": 123744,
      "componentType": 5125,
      "count": 5376,
      "type": "SCALAR"
    },
    {
      "bufferView": 2,
      "byteOffset": 172032,
      "componentType": 5126,
      "count": 25,
      "max": [
        0.9084270000457764,
        1.0975837707519531,
        0.4513891637325287
      ],
      "min": [
        -0.9136344790458679,
        0.7086004018783569,
        -0.6396052837371826
      ],
      "type": "VEC3"
    },
    {
      "bufferView": 2,
      "byteOffset": 172332,
      "componentType": 5126,
      "count": 25,
      "max": [
        0.0,
        1.0,
        1.6031530947202555e-07
      ],
      "min": [
        0.0,
        1.0,
        -3.8581885064559174e-07
      ],
      "type": "VEC3"
    },
    {
      "bufferView": 1,
      "byteOffset": 57344,
      "componentType": 5126,
      "count": 25,
      "max": [
        0.0,
        0.0
      ],
      "min": [
        0.0,
        0.0
      ],
      "type": "VEC2"
    },
    {
      "bufferView": 0,
      "byteOffset": 145248,
      "componentType": 5125,
      "count": 54,
      "type": "SCALAR"
    }
  ],
  "asset": {
    "extras": {
      "author": "Sergio Sotomayor (https://sketchfab.com/sergiosotomayor)",
      "license": "CC-BY-4.0 (http://creativecommons.org/licenses/by/4.0/)",
      "source": "https://sketchfab.com/3d-models/toon-spaceship-ce3e358791a84ebc8c9c36f71ce3e603",
      "title": "Toon Spaceship"
    },
    "generator": "Sketchfab-12.66.0",
    "version": "2.0"
  },
  "bufferViews": [
    {
      "buffer": 0,
      "byteLength": 145464,
      "name": "floatBufferViews",
      "target": 34963
    },
    {
      "buffer": 0,
      "byteLength": 57544,
      "byteOffset": 145464,
      "byteStride": 8,
      "name": "floatBufferViews",
      "target": 34962
    },
    {
      "buffer": 0,
      "byteLength": 172632,
      "byteOffset": 203008,
      "byteStride": 12,
      "name": "floatBufferViews",
      "target": 34962
    }
  ],
  "buffers": [
    {
      "byteLength": 375640,
      "uri": "scene.bin"
    }
  ],
  "extensionsRequired": [
    "KHR_materials_pbrSpecularGlossiness"
  ],
  "extensionsUsed": [
    "KHR_materials_pbrSpecularGlossiness"
  ],
  "materials": [
    {
      "extensions": {
        "KHR_materials_pbrSpecularGlossiness": {
          "diffuseFactor": [
            1.0,
            1.0,
            1.0,
            1.0
          ],
          "glossinessFactor": 0.0,
          "specularFactor": [
            0.0,
            0.0,
            0.0
          ]
        }
      },
      "name": "fuselage"
    },
    {
      "extensions": {
        "KHR_materials_pbrSpecularGlossiness": {
          "diffuseFactor": [
            0.10829235995947611,
            0.10829235995947611,
            0.10829235995947611,
            1.0
          ],
          "glossinessFactor": 0.0,
          "specularFactor": [
            0.0,
            0.0,
            0.0
          ]
        }
      },
      "name": "frames"
    },
    {
      "extensions": {
        "KHR_materials_pbrSpecularGlossiness": {
          "diffuseFactor": [
            0.3291694276,
            0.5493194066,
            0.810369951,
            1.0
          ],
          "glossinessFactor": 0.0,
          "specularFactor": [
            0.0,
            0.0,
            0.0
          ]
        }
      },
      "name": "glass"
    },
    {
      "extensions": {
        "KHR_materials_pbrSpecularGlossiness": {
          "diffuseFactor": [
            0.79,
            0.79,
            0.79,
            1.0
          ],
          "glossinessFactor": 0.0,
          "specularFactor": [
            0.0,
            0.0,
            0.0
          ]
        }
      },
      "name": "paint"
    },
    {
      "extensions": {
        "KHR_materials_pbrSpecularGlossiness": {
          "diffuseFactor": [
            0.0,
            0.0,
            0.0,
            1.0
          ],
          "glossinessFactor": 0.0,
          "specularFactor": [
            0.0,
            0.0,
            0.0
          ]
        }
      },
      "name": "motors"
    }
  ],
  "meshes": [
    {
      "name": "Spaceship_fuselage_0",
      "primitives": [
        {
          "attributes": {
            "NORMAL": 1,
            "POSITION": 0,
            "TEXCOORD_0": 2
          },
          "indices": 3,
          "material": 0,
          "mode": 4
        }
      ]
    },
    {
      "name": "Spaceship_frames_0",
      "primitives": [
        {
          "attributes": {
            "NORMAL": 5,
            "POSITION": 4,
            "TEXCOORD_0": 6
          },
          "indices": 7,
          "material": 1,
          "mode": 4
        }
      ]
    },
    {
      "name": "Spaceship_glass_0",
      "primitives": [
        {
          "attributes": {
            "NORMAL": 9,
            "POSITION": 8,
            "TEXCOORD_0": 10
          },
          "indices": 11,
          "material": 2,
          "mode": 4
        }
      ]
    },
    {
      "name": "Spaceship_paint_0",
      "primitives": [
        {
          "attributes": {
            "NORMAL": 13,
            "POSITION": 12,
            "TEXCOORD_0": 14
          },
          "indices": 15,
          "material": 3,
          "mode": 4
        }
      ]
    },
    {
      "name": "Spaceship_motors_0",
      "primitives": [
        {
          "attributes": {
            "NORMAL": 17,
            "POSITION": 16,
            "TEXCOORD_0": 18
          },
          "indices": 19,
          "material": 4,
          "mode": 4
        }
      ]
    }
  ],
  "nodes": [
    {
      "children": [
        1
      ],
      "matrix": [
        1.0,
        0.0,
        0.0,
        0.0,
        0.0,
        2.220446049250313e-16,
        -1.0,
        0.0,
        0.0,
        1.0,
        2.220446049250313e-16,
        0.0,
        0.0,
        0.0,
        0.0,
        1.0
      ],
      "name": "Sketchfab_model"
    },
    {
      "children": [
        2
      ],
      "matrix": [
        1.0,
        0.0,
        0.0,
        0.0,
        0.0,
        0.0,
        1.0,
        0.0,
        0.0,
        -1.0,
        0.0,
        0.0,
        0.0,
        0.0,
        0.0,
        1.0
      ],
      "name": "8bace01273304b5a9210f0342b2dfaa2.fbx"
    },
    {
      "children": [
        3,
        9,
        12
      ],
      "name": "RootNode"
    },
    {
      "children": [
        4,
        5,
        6,
        7,
        8
      ],
      "matrix": [
        100.0,
        0.0,
        0.0,
        0.0,
        -0.0,
        -1.629206793918314e-05,
        -99.99999999999868,
        0.0,
        0.0,
        99.99999999999868,
        -1.629206793918314e-05,
        0.0,
        -0.06298213452100754,
        6.2143683433532715,
        -26.641481399536133,
        1.0
      ],
      "name": "Spaceship"
    },
    {
      "mesh": 0,
      "name": "Spaceship_fuselage_0"
    },
    {
      "mesh": 1,
      "name": "Spaceship_frames_0"
    },
    {
      "mesh": 2,
      "name": "Spaceship_glass_0"
    },
    {
      "mesh": 3,
      "name": "Spaceship_paint_0"
    },
    {
      "mesh": 4,
      "name": "Spaceship_motors_0"
    },
    {
      "children": [
        10
      ],
      "matrix": [
        99.47374016514588,
        -10.242462905411777,
        -0.25878792148339663,
        0.0,
        10.245672810735662,
        99.4499378783001,
        2.1758949374347307,
        0.0,
        0.03449919795637682,
        -2.190958807196172,
        99.97598966407139,
        0.0,
        20.972991943359375,
        254.91461181640625,
        4.789847373962402,
        1.0
      ],
      "name": "Area"
    },
    {
      "children": [
        11
      ],
      "matrix": [
        1.0,
        0.0,
        0.0,
        0.0,
        0.0,
        2.220446049250313e-16,
        1.0,
        0.0,
        0.0,
        -1.0,
        2.220446049250313e-16,
        0.0,
        0.0,
        0.0,
        0.0,
        1.0
      ],
      "name": "Object_10"
    },
    {
      "name": "Object_11"
    },
    {
      "children": [
        13
      ],
      "matrix": [
        -99.63155926328223,
        2.8027837461617007,
        -8.105356379539337,
        0.0,
        2.793322147469296,
        99.96071425844904,
        0.2301224047319726,
        0.0,
        8.10862134489763,
        0.0028658249489924817,
        -99.67070144126244,
        0.0,
        582.7086181640625,
        -20.07099151611328,
        23.0626277923584,
        1.0
      ],
      "name": "Camera"
    },
    {
      "name": "Object_13"
    }
  ],
  "scene": 0,
  "scenes": [
    {
      "name": "Sketchfab_Scene",
      "nodes": [
        0
      ]
    }
  ]
}
