{
  "accessors": [
    {
      "bufferView": 2,
      "componentType": 5126,
      "count": 21,
      "max": [
        0.4389505088329315,
        0.0,
        0.24960297346115112
      ],
      "min": [
        -0.4389505088329315,
        0.0,
        -0.24960297346115112
      ],
      "type": "VEC3"
    },
    {
      "bufferView": 2,
      "byteOffset": 252,
      "componentType": 5126,
      "count": 21,
      "max": [
        0.0,
        -1.0,
        0.0
      ],
      "min": [
        0.0,
        -1.0,
        0.0
      ],
      "type": "VEC3"
    },
    {
      "bufferView": 1,
      "componentType": 5126,
      "count": 21,
      "max": [
        0.5686255097389221,
        0.9999245405197144
      ],
      "min": [
        7.539987564086914e-05,
        7.539987564086914e-05
      ],
      "type": "VEC2"
    },
    {
      "bufferView": 0,
      "componentType": 5125,
      "count": 57,
      "type": "SCALAR"
    },
    {
      "bufferView": 2,
      "byteOffset": 504,
      "componentType": 5126,
      "count": 4009,
      "max": [
        0.2645062208175659,
        0.040781497955322266,
        0.011346865445375443
      ],
      "min": [
        -0.7750447988510132,
        -0.828102707862854,
        -0.03352027386426926
      ],
      "type": "VEC3"
    },
    {
      "bufferView": 2,
      "byteOffset": 48612,
      "componentType": 5126,
      "count": 4009,
      "max": [
        1.0,
        1.0,
        1.0
      ],
      "min": [
        -1.0,
        -1.0,
        -1.0
      ],
      "type": "VEC3"
    },
    {
      "bufferView": 3,
      "componentType": 5126,
      "count": 4009,
      "max": [
        0.9982378482818604,
        0.9994895458221436,
        1.0,
        1.0
      ],
      "min": [
        -0.9983939528465271,
        -0.9998699426651001,
        -1.0,
        -1.0
      ],
      "type": "VEC4"
    },
    {
      "bufferView": 1,
      "byteOffset": 168,
      "componentType": 5126,
      "count": 4009,
      "max": [
        0.9984498620033264,
        0.9560471773147583
      ],
      "min": [
        0.0015553438570350409,
        0.0015501264715567231
      ],
      "type": "VEC2"
    },
    {
      "bufferView": 1,
      "byteOffset": 32240,
      "componentType": 5126,
      "count": 4009,
      "max": [
        0.9984498620033264,
        0.9560471773147583
      ],
      "min": [
        0.0015553438570350409,
        0.0015501264715567231
      ],
      "type": "VEC2"
    },
    {
      "bufferView": 1,
      "byteOffset": 64312,
      "componentType": 5126,
      "count": 4009,
      "max": [
        0.9984498620033264,
        0.9560471773147583
      ],
      "min": [
        0.0015553438570350409,
        0.0015501264715567231
      ],
      "type": "VEC2"
    },
    {
      "bufferView": 1,
      "byteOffset": 96384,
      "componentType": 5126,
      "count": 4009,
      "max": [
        0.9984498620033264,
        0.9560471773147583
      ],
      "min": [
        0.0015553438570350409,
        0.0015501264715567231
      ],
      "type": "VEC2"
    },
    {
      "bufferView": 0,
      "byteOffset": 228,
      "componentType": 5125,
      "count": 10770,
      "type": "SCALAR"
    }
  ],
  "asset": {
    "extras": {
      "author": "Bogdan Kuznetsov (https://sketchfab.com/kuznetsov_bogdan)",
      "license": "CC-BY-4.0 (http://creativecommons.org/licenses/by/4.0/)",
      "source": "https://sketchfab.com/3d-models/sci-fi-display-10-0ed31de2d498402fae1e58f6a344af3a",
      "title": "Sci-FI Display (10)"
    },
    "generator": "Sketchfab-14.95.0",
    "version": "2.0"
  },
  "bufferViews": [
    {
      "buffer": 0,
      "byteLength": 43308,
      "name": "floatBufferViews",
      "target": 34963
    },
    {
      "buffer": 0,
      "byteLength": 128456,
      "byteOffset": 43308,
      "byteStride": 8,
      "name": "floatBufferViews",
      "target": 34962
    },
    {
      "buffer": 0,
      "byteLength": 96720,
      "byteOffset": 171764,
      "byteStride": 12,
      "name": "floatBufferViews",
      "target": 34962
    },
    {
      "buffer": 0,
      "byteLength": 64144,
      "byteOffset": 268484,
      "byteStride": 16,
      "name": "floatBufferViews",
      "target": 34962
    }
  ],
  "buffers": [
    {
      "byteLength": 332628,
      "uri": "scene.bin"
    }
  ],
  "extensionsUsed": [
    "KHR_materials_emissive_strength"
  ],
  "images": [
    {
      "uri": "textures/Body_baseColor.png"
    },
    {
      "uri": "textures/Body_metallicRoughness.png"
    },
    {
      "uri": "textures/Body_emissive.png"
    },
    {
      "uri": "textures/Body_normal.png"
    }
  ],
  "materials": [
    {
      "doubleSided": true,
      "name": "Display",
      "pbrMetallicRoughness": {
        "baseColorFactor": [
          0.0,
          0.0,
          0.0,
          1.0
        ],
        "metallicFactor": 0.0,
        "roughnessFactor": 0.08448658466869327
      }
    },
    {
      "doubleSided": true,
      "emissiveFactor": [
        1.0,
        1.0,
        1.0
      ],
      "emissiveTexture": {
        "index": 2
      },
      "extensions": {
        "KHR_materials_emissive_strength": {
          "emissiveStrength": 2.2423879791841834
        }
      },
      "name": "Body",
      "normalTexture": {
        "index": 3
      },
      "pbrMetallicRoughness": {
        "baseColorTexture": {
          "index": 0
        },
        "metallicRoughnessTexture": {
          "index": 1
        }
      }
    }
  ],
  "meshes": [
    {
      "name": "Display_Display_0",
      "primitives": [
        {
          "attributes": {
            "NORMAL": 1,
            "POSITION": 0,
            "TEXCOORD_0": 2
          },
          "indices": 3,
          "material": 0,
          "mode": 4
        }
      ]
    },
    {
      "name": "Main_Body_0",
      "primitives": [
        {
          "attributes": {
            "NORMAL": 5,
            "POSITION": 4,
            "TANGENT": 6,
            "TEXCOORD_0": 7,
            "TEXCOORD_1": 8,
            "TEXCOORD_2": 9,
            "TEXCOORD_3": 10
          },
          "indices": 11,
          "material": 1,
          "mode": 4
        }
      ]
    }
  ],
  "nodes": [
    {
      "children": [
        1
      ],
      "matrix": [
        1.0,
        0.0,
        0.0,
        0.0,
        0.0,
        2.220446049250313e-16,
        -1.0,
        0.0,
        0.0,
        1.0,
        2.220446049250313e-16,
        0.0,
        0.0,
        0.0,
        0.0,
        1.0
      ],
      "name": "Sketchfab_model"
    },
    {
      "children": [
        2
      ],
      "matrix": [
        0.009999999776482582,
        0.0,
        0.0,
        0.0,
        0.0,
        0.0,
        0.009999999776482582,
        0.0,
        0.0,
        -0.009999999776482582,
        0.0,
        0.0,
        0.0,
        0.0,
        0.0,
        1.0
      ],
      "name": "c4553b6c8ec14db1a8bb5b86e698445b.fbx"
    },
    {
      "children": [
        3,
        5
      ],
      "name": "RootNode"
    },
    {
      "children": [
        4
      ],
      "matrix": [
        58.374290466308594,
        0.0,
        0.0,
        0.0,
        0.0,
        -9.510379061787103e-06,
        -58.37429046630782,
        0.0,
        0.0,
        58.37429046630782,
        -9.510379061787103e-06,
        0.0,
        0.7783092260360718,
        15.879945755004883,
        -0.3315519690513611,
        1.0
      ],
      "name": "Display"
    },
    {
      "mesh": 0,
      "name": "Display_Display_0"
    },
    {
      "children": [
        6
      ],
      "matrix": [
        -53.44484017795643,
        24.33594488205672,
        -2.0812191069851398e-05,
        0.0,
        -24.33594488205385,
        -53.44484017796043,
        -1.2043706579632606e-05,
        0.0,
        -2.3931995805338235e-05,
        -2.3361489337938333e-06,
        58.72468185424312,
        0.0,
        -22.55487823486328,
        0.5348250269889832,
        0.5462333559989929,
        1.0
      ],
      "name": "Main"
    },
    {
      "mesh": 1,
      "name": "Main_Body_0"
    }
  ],
  "samplers": [
    {
      "magFilter": 9729,
      "minFilter": 9987,
      "wrapS": 10497,
      "wrapT": 10497
    }
  ],
  "scene": 0,
  "scenes": [
    {
      "name": "Sketchfab_Scene",
      "nodes": [
        0
      ]
    }
  ],
  "textures": [
    {
      "sampler": 0,
      "source": 0
    },
    {
      "sampler": 0,
      "source": 1
    },
    {
      "sampler": 0,
      "source": 2
    },
    {
      "sampler": 0,
      "source": 3
    }
  ]
}
